<svg xmlns="http://www.w3.org/2000/svg" viewBox="0 0 1024 1024" role="img" aria-labelledby="title desc">
  <title id="title">Kaapi Kadai maskable davara and tumbler mark</title>
  <desc id="desc">A padded cream davara and tumbler mark on an espresso background for maskable app icons.</desc>
  <rect width="1024" height="1024" rx="224" fill="#1a1209"/>
  <circle cx="512" cy="548" r="330" fill="#92400e" opacity="0.18"/>
  <g transform="translate(112 112) scale(0.78)">
    <path d="M473 190c-38 38-18 72 12 102 33 33 42 67 6 105" fill="none" stroke="#f5e6d3" stroke-width="34" stroke-linecap="round" opacity="0.92"/>
    <path d="M569 222c28 30 22 61-8 90" fill="none" stroke="#f5e6d3" stroke-width="28" stroke-linecap="round" opacity="0.70"/>
    <ellipse cx="512" cy="352" rx="154" ry="48" fill="none" stroke="#f5e6d3" stroke-width="44"/>
    <ellipse cx="512" cy="352" rx="104" ry="25" fill="none" stroke="#f59e0b" stroke-width="24" opacity="0.92"/>
    <path d="M358 364l68 315c9 42 43 72 86 72s77-30 86-72l68-315" fill="none" stroke="#f5e6d3" stroke-width="44" stroke-linejoin="round"/>
    <path d="M414 512c52 30 144 30 196 0" fill="none" stroke="#f59e0b" stroke-width="28" stroke-linecap="round" opacity="0.78"/>
    <ellipse cx="512" cy="728" rx="255" ry="74" fill="none" stroke="#f5e6d3" stroke-width="44"/>
    <path d="M282 744c54 78 406 78 460 0" fill="none" stroke="#b45309" stroke-width="36" stroke-linecap="round" opacity="0.95"/>
    <path d="M344 708c78 34 258 42 336 4" fill="none" stroke="#f5e6d3" stroke-width="24" stroke-linecap="round" opacity="0.45"/>
  </g>
</svg>
